<svg width="43" height="15" viewBox="0 0 43 15" fill="none" xmlns="http://www.w3.org/2000/svg">
<path d="M21.028 10.4L22.72 8.024L22.648 7.952C22.464 8.032 22.256 8.072 22.024 8.072C21.608 8.072 21.208 7.96 20.824 7.736C20.448 7.504 20.14 7.184 19.9 6.776C19.668 6.368 19.552 5.912 19.552 5.408C19.552 4.88 19.684 4.4 19.948 3.968C20.22 3.536 20.576 3.2 21.016 2.96C21.464 2.72 21.94 2.6 22.444 2.6C23.02 2.6 23.532 2.732 23.98 2.996C24.428 3.252 24.776 3.6 25.024 4.04C25.272 4.48 25.396 4.956 25.396 5.468C25.396 5.98 25.296 6.46 25.096 6.908C24.904 7.356 24.616 7.852 24.232 8.396L22.252 11.24L21.028 10.4ZM22.48 6.764C22.848 6.764 23.168 6.636 23.44 6.38C23.72 6.116 23.86 5.788 23.86 5.396C23.86 5.004 23.72 4.68 23.44 4.424C23.168 4.168 22.848 4.04 22.48 4.04C22.104 4.04 21.776 4.168 21.496 4.424C21.224 4.68 21.088 5.004 21.088 5.396C21.088 5.788 21.224 6.116 21.496 6.38C21.776 6.636 22.104 6.764 22.48 6.764ZM26.8972 10.46L30.3172 4.34L30.2692 4.268H26.5012V2.792H32.0812V4.34L28.2172 11.192L26.8972 10.46ZM35.2329 6.704C34.8329 6.704 34.4689 6.612 34.1409 6.428C33.8209 6.244 33.5689 5.996 33.3849 5.684C33.2009 5.372 33.1089 5.028 33.1089 4.652C33.1089 4.276 33.2009 3.932 33.3849 3.62C33.5689 3.308 33.8209 3.06 34.1409 2.876C34.4689 2.692 34.8329 2.6 35.2329 2.6C35.6249 2.6 35.9809 2.692 36.3009 2.876C36.6289 3.06 36.8849 3.308 37.0689 3.62C37.2529 3.932 37.3449 4.276 37.3449 4.652C37.3449 5.028 37.2529 5.372 37.0689 5.684C36.8849 5.996 36.6289 6.244 36.3009 6.428C35.9809 6.612 35.6249 6.704 35.2329 6.704ZM34.6329 10.556L39.9609 2.6L40.9089 3.236L35.5809 11.192L34.6329 10.556ZM35.2329 5.528C35.4729 5.528 35.6689 5.448 35.8209 5.288C35.9809 5.128 36.0609 4.916 36.0609 4.652C36.0609 4.388 35.9809 4.176 35.8209 4.016C35.6689 3.856 35.4729 3.776 35.2329 3.776C35.0009 3.776 34.8049 3.86 34.6449 4.028C34.4849 4.188 34.4049 4.396 34.4049 4.652C34.4049 4.908 34.4849 5.12 34.6449 5.288C34.8049 5.448 35.0009 5.528 35.2329 5.528ZM40.3209 11.192C39.9209 11.192 39.5569 11.1 39.2289 10.916C38.9089 10.732 38.6569 10.484 38.4729 10.172C38.2889 9.86 38.1969 9.516 38.1969 9.14C38.1969 8.764 38.2889 8.42 38.4729 8.108C38.6569 7.796 38.9089 7.548 39.2289 7.364C39.5569 7.18 39.9209 7.088 40.3209 7.088C40.7129 7.088 41.0689 7.18 41.3889 7.364C41.7169 7.548 41.9729 7.796 42.1569 8.108C42.3409 8.42 42.4329 8.764 42.4329 9.14C42.4329 9.516 42.3409 9.86 42.1569 10.172C41.9729 10.484 41.7169 10.732 41.3889 10.916C41.0689 11.1 40.7129 11.192 40.3209 11.192ZM40.3209 10.016C40.5609 10.016 40.7569 9.936 40.9089 9.776C41.0689 9.616 41.1489 9.404 41.1489 9.14C41.1489 8.876 41.0689 8.664 40.9089 8.504C40.7569 8.344 40.5609 8.264 40.3209 8.264C40.0889 8.264 39.8929 8.348 39.7329 8.516C39.5729 8.676 39.4929 8.884 39.4929 9.14C39.4929 9.396 39.5729 9.608 39.7329 9.776C39.8929 9.936 40.0889 10.016 40.3209 10.016Z" fill="#31B9CC"/>
<path d="M6.5 12C9.53757 12 12 9.53757 12 6.5C12 3.46243 9.53757 1 6.5 1C3.46243 1 1 3.46243 1 6.5C1 9.53757 3.46243 12 6.5 12Z" stroke="#31B9CC" stroke-width="1.5" stroke-linecap="round" stroke-linejoin="round"/>
<path d="M4.29999 7.60001C4.29999 7.60001 5.12499 8.70001 6.49999 8.70001C7.87499 8.70001 8.69999 7.60001 8.69999 7.60001" stroke="#31B9CC" stroke-width="1.5" stroke-linecap="round" stroke-linejoin="round"/>
<path d="M4.85004 4.85001H4.85697" stroke="#31B9CC" stroke-width="1.5" stroke-linecap="round" stroke-linejoin="round"/>
<path d="M8.14996 4.85001H8.1569" stroke="#31B9CC" stroke-width="1.5" stroke-linecap="round" stroke-linejoin="round"/>
</svg>
