<svg width="31" height="31" viewBox="0 0 31 31" fill="none" xmlns="http://www.w3.org/2000/svg">
<path fill-rule="evenodd" clip-rule="evenodd" d="M0.762929 29.6846L0.764906 9.58692L14.4043 5.0374L14.4139 25.1471C13.9077 25.3483 13.276 25.5304 12.7326 25.7206C12.1399 25.928 11.6349 26.0931 11.0397 26.2832C9.89307 26.6494 8.76832 27.057 7.60366 27.4264C6.49145 27.7791 5.29873 28.1662 4.21702 28.5528C3.64647 28.7567 3.10584 28.9375 2.5255 29.1167C1.99774 29.2796 1.31906 29.5708 0.762929 29.6846V29.6846ZM17.3903 21.123C17.5607 20.6958 21.5228 10.8633 21.6699 10.6946C21.9265 10.7654 23.3277 11.1481 23.487 11.2411C23.724 11.3795 23.9993 12.6864 24.0931 13.0237L26.6754 22.3366C26.7812 22.7223 27.0531 23.8594 27.1709 24.0947C26.9495 24.0916 26.3094 23.866 26.0456 23.7867C25.1932 23.5304 25.1847 23.6467 25.0678 23.2644C24.882 22.6559 24.6621 21.4306 24.4166 20.9373C24.2807 20.7613 20.4033 19.6605 20.2887 19.629L19.432 21.7691C19.0601 21.6823 17.5954 21.2718 17.3903 21.123V21.123ZM26.5519 0.925971L26.5366 8.327L18.0754 5.64497C17.4962 5.44896 15.6911 4.96582 15.3239 4.72442L26.5519 0.925971ZM0 9.18077V30.3789C0.395106 30.7727 0.569406 30.5744 1.74174 30.1818L13.0242 26.4231C13.3378 26.32 13.6153 26.2238 13.9424 26.1116C15.3371 25.6331 14.7723 25.6422 16.7246 26.2725L30.1652 30.5279L30.1647 9.52524L27.3107 8.57854C27.2246 7.58271 27.2878 2.64076 27.2984 0.956879C27.302 0.399815 27.3664 0.260956 27.0294 0H26.8604C26.4636 0.202863 25.8142 0.337594 25.3813 0.499454C24.8765 0.688191 24.4231 0.83637 23.9092 1.00705C21.1166 1.93449 17.7713 3.01719 15.0707 3.99767C14.2244 4.30498 14.4741 4.34972 13.6434 4.06113L3.40877 0.462715L3.41047 7.88731L0.766844 8.76513C0.295119 8.92968 0.312326 8.83921 0 9.18077V9.18077Z" fill="#010002"/>
</svg>
